<svg width="908" height="1431" viewBox="0 0 908 1431" fill="none" xmlns="http://www.w3.org/2000/svg">
<path d="M584.412 793C584.412 845.209 585.261 897.489 584.412 949.687C582.542 1064.7 550.749 1152.34 475.788 1241.43C373.936 1362.48 212.543 1411.05 61 1428.88" stroke="white" stroke-opacity="0.9" stroke-width="3" stroke-linecap="round"/>
<g clip-path="url(#clip0_596_1820)">
<path d="M886.467 307.046C889.43 272.589 894.961 238.43 899.801 204.171C904.542 169.912 908.493 135.555 907.999 100.901C907.604 72.7637 907.604 39.2949 887.849 16.6861C865.033 -9.37811 827.007 -2.17096 803.894 19.3518C780.387 41.2694 765.868 73.6523 756.188 103.764C746.311 134.469 740.878 166.555 738.508 198.642C736.73 223.62 736.73 248.599 737.323 273.577C737.915 298.555 739.199 323.533 739.891 348.61L740.582 373.588C739.891 401.035 715.89 435.886 687.147 450.893L659.393 467.775C633.613 483.473 607.538 500.75 583.24 518.521L556.967 537.773C532.67 559.296 504.125 559.395 493.556 538.069L483.185 511.709C471.333 481.597 459.678 452.373 451.282 447.931C433.405 438.453 411.577 443.192 400.613 460.667L391.921 474.489C372.365 522.372 345.203 565.812 331.572 571.045C317.942 576.277 267.47 577.166 255.025 557.42L237.444 534.022L219.665 510.327C203.664 493.741 193.985 506.476 198.034 538.662L202.676 574.895C206.726 606.587 210.084 640.056 209.887 670.267L209.59 708.968C195.96 737.204 170.181 772.154 152.402 786.766L140.056 795.158C116.647 811.053 93.831 828.034 72.0026 846.003C59.1624 856.468 32.3956 877.102 15.407 898.822C-2.86562 922.122 -9.6808 946.607 24.4939 961.12C51.0632 972.473 79.0154 972.276 105.585 964.97C132.154 957.664 157.143 943.447 178.181 926.466C201.886 907.313 222.826 885 246.728 866.143L253.148 861.009C260.754 855.777 274.384 848.175 283.57 844.127C292.755 840.079 284.162 869.006 255.716 907.412L233.888 944.731C222.233 964.575 212.06 985.604 206.924 1008.21C201.985 1030.13 200.8 1057.58 220.554 1072.78L228.456 1078.9C237.147 1078.8 258.383 1071.5 275.569 1062.71L290.089 1050.57C321.103 1024.5 346.882 991.824 370.686 959.244C387.477 936.141 404.86 911.064 425.009 889.344L445.356 867.427C473.802 852.025 504.224 835.044 513.113 829.614C522.002 824.184 573.561 800.094 608.032 787.654L639.046 775.708L670.06 763.762C703.938 750.039 715.593 767.514 695.839 802.76L682.11 836.92C676.48 851.038 671.048 865.452 667.492 880.163C663.837 895.169 659.689 915.211 666.899 929.724L677.171 950.358C703.346 953.814 746.113 943.546 772.288 927.552L789.869 898.723L809.228 866.834C829.97 831.49 850.613 781.928 855.156 756.752L859.305 733.847C863.453 710.943 867.7 688.038 872.145 665.231C878.368 633.046 882.121 601.552 884.096 570.354C886.072 539.155 886.664 506.674 886.467 474.686L886.269 443.29C885.677 407.946 884.886 357.002 884.491 330.049L886.467 306.947V307.046ZM267.668 687.741C235.863 687.741 235.863 648.25 267.668 648.25C299.472 648.25 299.472 687.741 267.668 687.741ZM368.216 677.671C336.61 677.671 336.708 638.476 368.216 638.476C399.724 638.476 399.724 677.671 368.216 677.671Z" fill="white" fill-opacity="0.9"/>
<g opacity="0.58" filter="url(#filter0_iii_596_1820)">
<path d="M886.467 307.046C889.43 272.589 894.961 238.43 899.801 204.171C904.542 169.912 908.493 135.555 907.999 100.901C907.604 72.7637 907.604 39.2949 887.849 16.6861C865.033 -9.37811 827.007 -2.17096 803.894 19.3518C780.387 41.2694 765.868 73.6523 756.188 103.764C746.311 134.469 740.878 166.555 738.508 198.642C736.73 223.62 736.73 248.599 737.323 273.577C737.915 298.555 739.199 323.533 739.891 348.61L740.582 373.588C739.891 401.035 715.89 435.886 687.147 450.893L659.393 467.775C633.613 483.473 607.538 500.75 583.24 518.521L556.967 537.773C532.67 559.296 504.125 559.395 493.556 538.069L483.185 511.709C471.333 481.597 459.678 452.373 451.282 447.931C433.405 438.453 411.577 443.192 400.613 460.667L391.921 474.489C372.365 522.372 345.203 565.812 331.572 571.045C317.942 576.277 267.47 577.166 255.025 557.42L237.444 534.022L219.665 510.327C203.664 493.741 193.985 506.476 198.034 538.662L202.676 574.895C206.726 606.587 210.084 640.056 209.887 670.267L209.59 708.968C195.96 737.204 170.181 772.154 152.402 786.766L140.056 795.158C116.647 811.053 93.831 828.034 72.0026 846.003C59.1624 856.468 32.3956 877.102 15.407 898.822C-2.86562 922.122 -9.6808 946.607 24.4939 961.12C51.0632 972.473 79.0154 972.276 105.585 964.97C132.154 957.664 157.143 943.447 178.181 926.466C201.886 907.313 222.826 885 246.728 866.143L253.148 861.009C260.754 855.777 274.384 848.175 283.57 844.127C292.755 840.079 284.162 869.006 255.716 907.412L233.888 944.731C222.233 964.575 212.06 985.604 206.924 1008.21C201.985 1030.13 200.8 1057.58 220.554 1072.78L228.456 1078.9C237.147 1078.8 258.383 1071.5 275.569 1062.71L290.089 1050.57C321.103 1024.5 346.882 991.824 370.686 959.244C387.477 936.141 404.86 911.064 425.009 889.344L445.356 867.427C473.802 852.025 504.224 835.044 513.113 829.614C522.002 824.184 573.561 800.094 608.032 787.654L639.046 775.708L670.06 763.762C703.938 750.039 715.593 767.514 695.839 802.76L682.11 836.92C676.48 851.038 671.048 865.452 667.492 880.163C663.837 895.169 659.689 915.211 666.899 929.724L677.171 950.358C703.346 953.814 746.113 943.546 772.288 927.552L789.869 898.723L809.228 866.834C829.97 831.49 850.613 781.928 855.156 756.752L859.305 733.847C863.453 710.943 867.7 688.038 872.145 665.231C878.368 633.046 882.121 601.552 884.096 570.354C886.072 539.155 886.664 506.674 886.467 474.686L886.269 443.29C885.677 407.946 884.886 357.002 884.491 330.049L886.467 306.947V307.046ZM267.668 687.741C235.863 687.741 235.863 648.25 267.668 648.25C299.472 648.25 299.472 687.741 267.668 687.741ZM368.216 677.671C336.61 677.671 336.708 638.476 368.216 638.476C399.724 638.476 399.724 677.671 368.216 677.671Z" fill="white" fill-opacity="0.9"/>
</g>
</g>
<defs>
<filter id="filter0_iii_596_1820" x="0.273438" y="-0.015625" width="907.766" height="1078.91" filterUnits="userSpaceOnUse" color-interpolation-filters="sRGB">
<feFlood flood-opacity="0" result="BackgroundImageFix"/>
<feBlend mode="normal" in="SourceGraphic" in2="BackgroundImageFix" result="shape"/>
<feColorMatrix in="SourceAlpha" type="matrix" values="0 0 0 0 0 0 0 0 0 0 0 0 0 0 0 0 0 0 127 0" result="hardAlpha"/>
<feOffset/>
<feGaussianBlur stdDeviation="125"/>
<feComposite in2="hardAlpha" operator="arithmetic" k2="-1" k3="1"/>
<feColorMatrix type="matrix" values="0 0 0 0 1 0 0 0 0 0.321569 0 0 0 0 0.717647 0 0 0 1 0"/>
<feBlend mode="normal" in2="shape" result="effect1_innerShadow_596_1820"/>
<feColorMatrix in="SourceAlpha" type="matrix" values="0 0 0 0 0 0 0 0 0 0 0 0 0 0 0 0 0 0 127 0" result="hardAlpha"/>
<feOffset/>
<feGaussianBlur stdDeviation="50"/>
<feComposite in2="hardAlpha" operator="arithmetic" k2="-1" k3="1"/>
<feColorMatrix type="matrix" values="0 0 0 0 1 0 0 0 0 0.321569 0 0 0 0 0.717647 0 0 0 1 0"/>
<feBlend mode="normal" in2="effect1_innerShadow_596_1820" result="effect2_innerShadow_596_1820"/>
<feColorMatrix in="SourceAlpha" type="matrix" values="0 0 0 0 0 0 0 0 0 0 0 0 0 0 0 0 0 0 127 0" result="hardAlpha"/>
<feOffset/>
<feGaussianBlur stdDeviation="50"/>
<feComposite in2="hardAlpha" operator="arithmetic" k2="-1" k3="1"/>
<feColorMatrix type="matrix" values="0 0 0 0 1 0 0 0 0 0.321569 0 0 0 0 0.717647 0 0 0 1 0"/>
<feBlend mode="normal" in2="effect2_innerShadow_596_1820" result="effect3_innerShadow_596_1820"/>
</filter>
<clipPath id="clip0_596_1820">
<rect width="908" height="1079" fill="white"/>
</clipPath>
</defs>
</svg>
