<svg width="1422" height="1966" viewBox="0 0 1422 1966" fill="none" xmlns="http://www.w3.org/2000/svg">
<g clip-path="url(#clip0_567_1733)">
<path d="M1182.34 479.828C1100.97 479.188 1019.09 513.979 937.862 516.609C941.705 511.681 940.381 489.162 944.37 484.482C1056.28 352.835 898.289 118.604 740.479 225.589C697.813 254.519 673.127 307.919 640.293 343.85C613.159 313.925 626.619 232.482 596.01 205.665C519.691 138.817 407.071 232.304 351.29 288.273C293.936 345.803 241.699 429.304 320.378 498.213C356.586 529.909 343.579 576.847 372.205 611.783C362.392 615.106 404.104 579.549 395.389 583.018C332.299 607.849 256.753 591.472 192.205 612.264C94.579 643.745 99.9891 780.125 122.146 856.233C144.483 932.942 186.227 952.331 285.507 922.249C342.62 904.945 404.898 900.469 462.608 885.17C490.15 877.875 564.98 834.453 604.44 829.682C622.393 847.466 607.634 933.588 623.14 953.41C654.485 1007.98 719.931 1040.64 756.709 1091.59C815.717 1173.34 927.909 1235.83 994.797 1197.25C1063.03 1157.82 1134.35 987.061 1079.89 896.787C1059.63 863.179 977.699 862.742 953.68 824.47C1033.52 821.928 1113.26 765.694 1193.24 766.311C1297.61 767.119 1310.17 741.628 1306.15 660.591C1302.24 581.631 1284.11 480.574 1182.43 479.765L1182.34 479.828ZM655.408 691.238C534.401 625.772 632.364 445.214 753.155 510.563C873.945 575.911 776.198 756.587 655.408 691.238Z" fill="white" fill-opacity="0.9"/>
<g filter="url(#filter0_ii_567_1733)">
<g opacity="0.58">
<path d="M1182.34 479.828C1100.97 479.188 1019.09 513.979 937.862 516.609C941.705 511.681 940.381 489.162 944.37 484.482C1056.28 352.835 898.289 118.604 740.479 225.589C697.813 254.519 673.127 307.919 640.293 343.85C613.159 313.925 626.619 232.482 596.01 205.665C519.691 138.817 407.071 232.304 351.29 288.273C293.936 345.803 241.699 429.304 320.378 498.213C356.586 529.909 343.579 576.847 372.205 611.783C362.392 615.106 404.104 579.549 395.389 583.018C332.299 607.849 256.753 591.472 192.205 612.264C94.579 643.745 99.9891 780.125 122.146 856.233C144.483 932.942 186.227 952.331 285.507 922.249C342.62 904.945 404.898 900.469 462.608 885.17C490.15 877.875 564.98 834.453 604.44 829.682C622.393 847.466 607.634 933.588 623.14 953.41C654.485 1007.98 719.931 1040.64 756.709 1091.59C815.717 1173.34 927.909 1235.83 994.797 1197.25C1063.03 1157.82 1134.35 987.061 1079.89 896.787C1059.63 863.179 977.699 862.742 953.68 824.47C1033.52 821.928 1113.26 765.694 1193.24 766.311C1297.61 767.119 1310.17 741.628 1306.15 660.591C1302.24 581.631 1284.11 480.574 1182.43 479.765L1182.34 479.828ZM655.408 691.238C534.401 625.772 632.364 445.214 753.155 510.563C873.945 575.911 776.198 756.587 655.408 691.238Z" fill="white" fill-opacity="0.9"/>
</g>
</g>
</g>
<path d="M603.464 837C603.464 875.906 605.004 915.441 601.527 954.193C596.494 1010.28 577.835 1060.04 554.391 1110.94C517.813 1190.35 472.254 1262.59 419.441 1332.25C266.16 1534.41 70.3879 1711.87 2 1964.38" stroke="white" stroke-opacity="0.9" stroke-width="3" stroke-linecap="round"/>
<defs>
<filter id="filter0_ii_567_1733" x="108.734" y="182.492" width="1198.05" height="1026.45" filterUnits="userSpaceOnUse" color-interpolation-filters="sRGB">
<feFlood flood-opacity="0" result="BackgroundImageFix"/>
<feBlend mode="normal" in="SourceGraphic" in2="BackgroundImageFix" result="shape"/>
<feColorMatrix in="SourceAlpha" type="matrix" values="0 0 0 0 0 0 0 0 0 0 0 0 0 0 0 0 0 0 127 0" result="hardAlpha"/>
<feOffset/>
<feGaussianBlur stdDeviation="125"/>
<feComposite in2="hardAlpha" operator="arithmetic" k2="-1" k3="1"/>
<feColorMatrix type="matrix" values="0 0 0 0 1 0 0 0 0 0.321569 0 0 0 0 0.717647 0 0 0 1 0"/>
<feBlend mode="normal" in2="shape" result="effect1_innerShadow_567_1733"/>
<feColorMatrix in="SourceAlpha" type="matrix" values="0 0 0 0 0 0 0 0 0 0 0 0 0 0 0 0 0 0 127 0" result="hardAlpha"/>
<feOffset/>
<feGaussianBlur stdDeviation="50"/>
<feComposite in2="hardAlpha" operator="arithmetic" k2="-1" k3="1"/>
<feColorMatrix type="matrix" values="0 0 0 0 1 0 0 0 0 0.321569 0 0 0 0 0.717647 0 0 0 1 0"/>
<feBlend mode="normal" in2="effect1_innerShadow_567_1733" result="effect2_innerShadow_567_1733"/>
</filter>
<clipPath id="clip0_567_1733">
<rect width="1060.27" height="967.261" fill="white" transform="translate(489.258) rotate(28.4138)"/>
</clipPath>
</defs>
</svg>
