<svg width="1129" height="1678" viewBox="0 0 1129 1678" fill="none" xmlns="http://www.w3.org/2000/svg">
<path d="M597.158 702.805C597.158 835.326 612.671 976.95 576.01 1105.58C558.673 1166.4 532.833 1227.56 484.689 1270.44C479.487 1275.07 435.328 1312.81 427.013 1295.43C414.386 1269.03 443.806 1227.13 459.696 1209.39C491.912 1173.43 546.656 1153.91 590.429 1182.48C679.037 1240.3 703.617 1373.14 729.332 1466.53C748.938 1537.74 769.152 1607.39 796.141 1676.09" stroke="white" stroke-opacity="0.9" stroke-width="3" stroke-linecap="round"/>
<g clip-path="url(#clip0_567_1751)">
<path d="M692.721 139.125C646.952 190.72 623.522 262.388 579.917 315.718C578.913 310.518 563.797 298.809 563.033 293.653C541.369 148.813 303.745 119.11 284.077 279.506C278.763 322.874 299.095 368.404 303.732 409.398C269.5 410.039 225.005 356.043 190.82 360.637C105.595 372.098 102.501 496.118 107.139 562.933C111.897 631.621 136.089 711.522 223.946 699.703C264.367 694.255 287.084 728.726 325.347 729.925C321.999 738.042 322.55 691.59 319.906 699.087C300.589 753.21 248.019 792.313 225.31 845.116C190.987 924.996 281.076 997.569 342.02 1025.85C403.447 1054.35 439.098 1038.51 475.236 958.352C496.027 912.242 527.888 869.984 550.291 824.61C560.987 802.958 574.979 730.976 593.93 703.123C615.293 701.574 662.051 759.007 683.351 760.158C735.663 770.565 793 746.987 846.031 751.908C931.122 759.807 1033.56 723.013 1046.22 658.8C1059.09 593.256 989.816 452.531 901.823 436.974C869.068 431.177 823.118 483.241 785.292 477.241C828.177 424.849 836.729 342.587 881.709 291.867C940.407 225.681 931.133 203.454 877.152 160.846C824.558 119.326 749.929 74.566 692.731 139.033L692.721 139.125ZM533.952 593.404C424.697 634.167 364.029 470.966 473.088 430.276C582.147 389.586 643.011 552.714 533.952 593.404Z" fill="white" fill-opacity="0.9"/>
<g filter="url(#filter0_ii_567_1751)">
<g opacity="0.58">
<path d="M692.721 139.125C646.952 190.72 623.522 262.388 579.917 315.718C578.913 310.518 563.797 298.809 563.033 293.653C541.369 148.813 303.745 119.11 284.077 279.506C278.763 322.874 299.095 368.404 303.732 409.398C269.5 410.039 225.005 356.043 190.82 360.637C105.595 372.098 102.501 496.118 107.139 562.933C111.897 631.621 136.089 711.522 223.946 699.703C264.367 694.255 287.084 728.726 325.347 729.925C321.999 738.042 322.55 691.59 319.906 699.087C300.589 753.21 248.019 792.313 225.31 845.116C190.987 924.996 281.076 997.569 342.02 1025.85C403.447 1054.35 439.098 1038.51 475.236 958.352C496.027 912.242 527.888 869.984 550.291 824.61C560.987 802.958 574.979 730.976 593.93 703.123C615.293 701.574 662.051 759.007 683.351 760.158C735.663 770.565 793 746.987 846.031 751.908C931.122 759.807 1033.56 723.013 1046.22 658.8C1059.09 593.256 989.816 452.531 901.823 436.974C869.068 431.177 823.118 483.241 785.292 477.241C828.177 424.849 836.729 342.587 881.709 291.867C940.407 225.681 931.133 203.454 877.152 160.846C824.558 119.326 749.929 74.566 692.731 139.033L692.721 139.125ZM533.952 593.404C424.697 634.167 364.029 470.966 473.088 430.276C582.147 389.586 643.011 552.714 533.952 593.404Z" fill="white" fill-opacity="0.9"/>
</g>
</g>
</g>
<defs>
<filter id="filter0_ii_567_1751" x="105.809" y="106.625" width="941.953" height="932.367" filterUnits="userSpaceOnUse" color-interpolation-filters="sRGB">
<feFlood flood-opacity="0" result="BackgroundImageFix"/>
<feBlend mode="normal" in="SourceGraphic" in2="BackgroundImageFix" result="shape"/>
<feColorMatrix in="SourceAlpha" type="matrix" values="0 0 0 0 0 0 0 0 0 0 0 0 0 0 0 0 0 0 127 0" result="hardAlpha"/>
<feOffset/>
<feGaussianBlur stdDeviation="125"/>
<feComposite in2="hardAlpha" operator="arithmetic" k2="-1" k3="1"/>
<feColorMatrix type="matrix" values="0 0 0 0 1 0 0 0 0 0.321569 0 0 0 0 0.717647 0 0 0 1 0"/>
<feBlend mode="normal" in2="shape" result="effect1_innerShadow_567_1751"/>
<feColorMatrix in="SourceAlpha" type="matrix" values="0 0 0 0 0 0 0 0 0 0 0 0 0 0 0 0 0 0 127 0" result="hardAlpha"/>
<feOffset/>
<feGaussianBlur stdDeviation="50"/>
<feComposite in2="hardAlpha" operator="arithmetic" k2="-1" k3="1"/>
<feColorMatrix type="matrix" values="0 0 0 0 1 0 0 0 0 0.321569 0 0 0 0 0.717647 0 0 0 1 0"/>
<feBlend mode="normal" in2="effect1_innerShadow_567_1751" result="effect2_innerShadow_567_1751"/>
</filter>
<clipPath id="clip0_567_1751">
<rect width="898.674" height="819.837" fill="white" transform="translate(0 314.141) rotate(-20.4607)"/>
</clipPath>
</defs>
</svg>
